<?xml version="1.0" encoding="UTF-8" standalone="no"?>
<!-- Created with Inkscape (http://www.inkscape.org/) -->

<svg
   width="93.986534"
   height="29.99811"
   id="svg2985"
   version="1.1"
   inkscape:version="1.2.2 (732a01da63, 2022-12-09)"
   sodipodi:docname="bonsai-conference.svg"
   inkscape:export-filename="Bonsai.png"
   inkscape:export-xdpi="1034.1727"
   inkscape:export-ydpi="1034.1727"
   xmlns:inkscape="http://www.inkscape.org/namespaces/inkscape"
   xmlns:sodipodi="http://sodipodi.sourceforge.net/DTD/sodipodi-0.dtd"
   xmlns="http://www.w3.org/2000/svg"
   xmlns:svg="http://www.w3.org/2000/svg"
   xmlns:rdf="http://www.w3.org/1999/02/22-rdf-syntax-ns#"
   xmlns:cc="http://creativecommons.org/ns#"
   xmlns:dc="http://purl.org/dc/elements/1.1/">
  <defs
     id="defs2987" />
  <sodipodi:namedview
     id="base"
     pagecolor="#474747"
     bordercolor="#666666"
     borderopacity="1.0"
     inkscape:pageopacity="0"
     inkscape:pageshadow="2"
     inkscape:zoom="8"
     inkscape:cx="37.875"
     inkscape:cy="23.125"
     inkscape:document-units="mm"
     inkscape:current-layer="layer2"
     showgrid="false"
     inkscape:window-width="1735"
     inkscape:window-height="1080"
     inkscape:window-x="18"
     inkscape:window-y="51"
     inkscape:window-maximized="0"
     units="px"
     showguides="true"
     inkscape:guide-bbox="true"
     inkscape:showpageshadow="2"
     inkscape:pagecheckerboard="0"
     inkscape:deskcolor="#474747">
    <sodipodi:guide
       orientation="0,1"
       position="-63.76953,14.999055"
       id="guide4444"
       inkscape:locked="false"
       inkscape:label=""
       inkscape:color="rgb(0,0,255)" />
    <sodipodi:guide
       orientation="1,0"
       position="15.000001,45.726594"
       id="guide4446"
       inkscape:locked="false"
       inkscape:label=""
       inkscape:color="rgb(0,0,255)" />
  </sodipodi:namedview>
  <metadata
     id="metadata2990">
    <rdf:RDF>
      <cc:Work
         rdf:about="">
        <dc:format>image/svg+xml</dc:format>
        <dc:type
           rdf:resource="http://purl.org/dc/dcmitype/StillImage" />
      </cc:Work>
    </rdf:RDF>
  </metadata>
  <g
     inkscape:groupmode="layer"
     id="layer2"
     inkscape:label="Layer 1"
     transform="translate(5.494532e-7,-9.4515593e-4)">
    <path
       style="fill:#ffffff;stroke-width:0.171505"
       d="m 12.261719,3.3691406 c -1.632041,0 -2.9934449,1.161525 -3.3007815,2.703125 C 8.710026,5.9336656 8.4207229,5.8580406 8.1113281,5.8691406 7.2755851,5.8997406 6.5846829,6.5771094 6.5390625,7.4121094 6.4876112,8.356809 7.2383742,9.138672 8.171875,9.138672 c 0.5054248,0 0.9578506,-0.229544 1.2578125,-0.589844 0.3742256,0.5825 0.9226045,1.043841 1.5722655,1.306641 C 11.000923,9.877269 11,9.897922 11,9.919922 10.544312,9.632822 10.004099,9.466797 9.4257812,9.466797 c -1.6327258,0 -2.9550781,1.322578 -2.9550781,2.955078 0,0.0299 0.0011,0.06044 0.00195,0.08984 -0.2852125,-0.0782 -0.5932818,-0.104147 -0.9121093,-0.06055 -1.0700187,0.1466 -1.8952996,1.051959 -1.9472657,2.130859 -0.023325,0.4864 0.106111,0.941613 0.3457032,1.320313 -0.3629042,0.2369 -0.5934092,0.657559 -0.5585938,1.130859 0.045449,0.6147 0.5542196,1.110878 1.1699219,1.142578 0.7083149,0.0364 1.2950832,-0.52095 1.3046875,-1.21875 0.3003049,-2e-4 0.585597,-0.05972 0.8476562,-0.166015 0.6012959,-0.1626 2.0020288,-0.45296 3.3124999,-0.06836 1.126615,0.3307 1.99755,1.469335 2.013672,1.490235 0.4797,1.004 1.985476,1.669406 2.046875,2.316406 0.188998,1.9949 -4.2806109,2.678681 -6.8085937,3.363281 4.4610777,3.7433 10.9647037,3.665175 15.4257817,-0.07813 0,0 -5.006042,-0.659362 -6.017579,-3.476562 -0.761481,-2.1209 -2.625952,-2.342622 -2.632812,-3.107422 -0.0108,-1.1925 1.995063,-1.2206 2.03125,-2.6875 0.0048,-0.1944 -0.01829,-0.368538 -0.05859,-0.523438 0.641771,-0.0549 1.229048,-0.298681 1.707032,-0.675781 0.0055,0.0112 0.01209,0.022 0.01758,0.0332 -0.381598,0.2893 -0.606551,0.774341 -0.521485,1.306641 0.09313,0.5824 0.568027,1.043947 1.152344,1.123047 0.577113,0.078 1.093542,-0.207104 1.359375,-0.658203 0.387601,0.1416 0.80749,0.21875 1.244141,0.21875 1.763241,0 3.231058,-1.258735 3.554687,-2.927735 0.810875,-0.1285 1.420003,-0.867069 1.341797,-1.730469 -0.06792,-0.7495 -0.669865,-1.360306 -1.417969,-1.441406 -0.266518,-0.0288 -0.520527,0.00946 -0.75,0.097656 -0.664067,-0.7606 -1.639459,-1.242187 -2.728515,-1.242187 -0.975347,0 -1.860515,0.386872 -2.511719,1.013672 -0.423788,-0.6807 -1.095119,-1.1909971 -1.888672,-1.4042971 0.459119,-0.2319 0.775457,-0.7067594 0.777344,-1.2558594 0.0026,-0.7433 -0.552069,-1.3505094 -1.292969,-1.4121094 -0.292931,-0.0245 -0.567772,0.041575 -0.802734,0.171875 -0.551045,-1.1072 -1.692914,-1.8671875 -3.013672,-1.8671875 z m 2.173828,10.6503904 c 0.02487,0.1008 0.04102,0.208219 0.04101,0.324219 0,0.6091 -1.576319,1.168719 -2.259765,2.261719 -0.433736,-0.3517 -0.951681,-0.68871 -1.484375,-0.84961 -0.931615,-0.2817 -2.1433165,-0.177684 -2.8183595,-0.08398 0.090212,-0.1883 0.1560763,-0.392669 0.1914063,-0.605469 0.3978911,0.1994 0.8450727,0.3125 1.3203124,0.3125 0.9592288,0 1.8114928,-0.455962 2.3515628,-1.164062 0.345753,0.2255 0.75766,0.355468 1.201172,0.355468 0.558591,0 1.068743,-0.208181 1.457031,-0.550781 z"
       id="path1082"
       inkscape:connector-curvature="0" />
    <g
       id="g45"
       transform="matrix(0.99993699,0,0,0.99993699,-5.494532e-7,9.6232098e-4)">
      <circle
         r="15"
         cy="14.999983"
         cx="15"
         id="path1206-2"
         style="fill:#ec2227;stroke-width:2" />
      <path
         inkscape:connector-curvature="0"
         id="path1082-9"
         d="m 12.261719,3.3691406 c -1.632041,0 -2.9934449,1.161525 -3.3007815,2.703125 C 8.710026,5.9336656 8.4207229,5.8580406 8.1113281,5.8691406 7.2755851,5.8997406 6.5846829,6.5771094 6.5390625,7.4121094 6.4876112,8.356809 7.2383742,9.138672 8.171875,9.138672 c 0.5054248,0 0.9578506,-0.229544 1.2578125,-0.589844 0.3742256,0.5825 0.9226045,1.043841 1.5722655,1.306641 C 11.000923,9.877269 11,9.897922 11,9.919922 10.544312,9.632822 10.004099,9.466797 9.4257812,9.466797 c -1.6327258,0 -2.9550781,1.322578 -2.9550781,2.955078 0,0.0299 0.0011,0.06044 0.00195,0.08984 -0.2852125,-0.0782 -0.5932818,-0.104147 -0.9121093,-0.06055 -1.0700187,0.1466 -1.8952996,1.051959 -1.9472657,2.130859 -0.023325,0.4864 0.106111,0.941613 0.3457032,1.320313 -0.3629042,0.2369 -0.5934092,0.657559 -0.5585938,1.130859 0.045449,0.6147 0.5542196,1.110878 1.1699219,1.142578 0.7083149,0.0364 1.2950832,-0.52095 1.3046875,-1.21875 0.3003049,-2e-4 0.585597,-0.05972 0.8476562,-0.166015 0.6012959,-0.1626 2.0020288,-0.45296 3.3124999,-0.06836 1.126615,0.3307 1.99755,1.469335 2.013672,1.490235 0.4797,1.004 1.985476,1.669406 2.046875,2.316406 0.188998,1.9949 -4.2806109,2.678681 -6.8085937,3.363281 4.4610777,3.7433 10.9647037,3.665175 15.4257817,-0.07813 0,0 -5.006042,-0.659362 -6.017579,-3.476562 -0.761481,-2.1209 -2.625952,-2.342622 -2.632812,-3.107422 -0.0108,-1.1925 1.995063,-1.2206 2.03125,-2.6875 0.0048,-0.1944 -0.01829,-0.368538 -0.05859,-0.523438 0.641771,-0.0549 1.229048,-0.298681 1.707032,-0.675781 0.0055,0.0112 0.01209,0.022 0.01758,0.0332 -0.381598,0.2893 -0.606551,0.774341 -0.521485,1.306641 0.09313,0.5824 0.568027,1.043947 1.152344,1.123047 0.577113,0.078 1.093542,-0.207104 1.359375,-0.658203 0.387601,0.1416 0.80749,0.21875 1.244141,0.21875 1.763241,0 3.231058,-1.258735 3.554687,-2.927735 0.810875,-0.1285 1.420003,-0.867069 1.341797,-1.730469 -0.06792,-0.7495 -0.669865,-1.360306 -1.417969,-1.441406 -0.266518,-0.0288 -0.520527,0.00946 -0.75,0.097656 -0.664067,-0.7606 -1.639459,-1.242187 -2.728515,-1.242187 -0.975347,0 -1.860515,0.386872 -2.511719,1.013672 -0.423788,-0.6807 -1.095119,-1.1909971 -1.888672,-1.4042971 0.459119,-0.2319 0.775457,-0.7067594 0.777344,-1.2558594 0.0026,-0.7433 -0.552069,-1.3505094 -1.292969,-1.4121094 -0.292931,-0.0245 -0.567772,0.041575 -0.802734,0.171875 -0.551045,-1.1072 -1.692914,-1.8671875 -3.013672,-1.8671875 z m 2.173828,10.6503904 c 0.02487,0.1008 0.04102,0.208219 0.04101,0.324219 0,0.6091 -1.576319,1.168719 -2.259765,2.261719 -0.433736,-0.3517 -0.951681,-0.68871 -1.484375,-0.84961 -0.931615,-0.2817 -2.1433165,-0.177684 -2.8183595,-0.08398 0.090212,-0.1883 0.1560763,-0.392669 0.1914063,-0.605469 0.3978911,0.1994 0.8450727,0.3125 1.3203124,0.3125 0.9592288,0 1.8114928,-0.455962 2.3515628,-1.164062 0.345753,0.2255 0.75766,0.355468 1.201172,0.355468 0.558591,0 1.068743,-0.208181 1.457031,-0.550781 z"
         style="fill:#ffffff;stroke-width:0.171505" />
    </g>
    <g
       id="g5120"
       transform="matrix(0.14505468,0,0,0.14505468,-14.50547,-24.805102)"
       style="fill:#000000;fill-opacity:1">
      <path
         id="path1261-6"
         d="m 389.35897,295.28518 c 3.18475,0 6.20153,-0.60525 9.05037,-1.81506 2.84882,-1.20981 5.33374,-2.8808 7.45905,-5.01297 2.12531,-2.1294 3.78767,-4.62279 4.99568,-7.48084 1.20585,-2.85736 1.81093,-5.885 1.81093,-9.08014 0,-3.19584 -0.60508,-6.22278 -1.81093,-9.08083 -1.20801,-2.85254 -2.87037,-5.34868 -4.99568,-7.48016 -2.12531,-2.1301 -4.61023,-3.80109 -7.45905,-5.01297 -2.84884,-1.2105 -5.86562,-1.81506 -9.05037,-1.81506 -3.1869,0 -6.20582,0.60456 -9.0525,1.81506 -2.84884,1.21188 -5.3359,2.88287 -7.45907,5.01297 -2.12531,2.13148 -3.8135,4.60142 -5.06888,7.40915 -1.25538,2.81049 -1.88199,5.81193 -1.88199,9.00569 v 0.14615 c 0,3.19514 0.62662,6.22278 1.88199,9.08014 1.25538,2.85805 2.94357,5.35144 5.06888,7.48084 2.12317,2.13217 4.61023,3.80316 7.45907,5.01297 2.84668,1.20981 5.8656,1.81506 9.0525,1.81506 m -0.0732,-61.74179 c 5.32512,0 10.31435,0.99474 14.96335,2.978 4.64898,1.9874 8.71658,4.72206 12.20279,8.2088 3.4862,3.48605 6.22306,7.55392 8.20841,12.20291 1.98535,4.64899 2.97801,9.63782 2.97801,14.96307 0,5.32731 -0.99266,10.31408 -2.97801,14.96307 -1.98535,4.64898 -4.72221,8.71685 -8.20841,12.2029 -3.48621,3.48605 -7.55381,6.22347 -12.20279,8.20604 -4.649,1.9881 -9.63823,2.98076 -14.96335,2.98076 -5.32729,0 -10.31435,-0.99266 -14.96334,-2.98076 -4.64684,-1.98257 -8.71659,-4.71999 -12.20279,-8.20604 -3.48622,-3.48605 -6.22306,-7.55392 -8.20842,-12.2029 -1.98535,-4.64899 -2.97802,-9.63576 -2.97802,-14.96307 V 183.6557 c 0,-0.76863 0.62449,-1.39318 1.39319,-1.39318 h 12.17481 c 0.77088,0 1.39534,0.62662 1.39319,1.39731 l -0.13567,55.16607 c -0.004,1.10434 1.22738,1.78266 2.149,1.1712 2.70241,-1.79369 5.61584,-3.24271 8.73813,-4.34774 3.97069,-1.40145 8.18472,-2.10597 12.63992,-2.10597"
         style="fill:#000000;stroke-width:0.551247;fill-opacity:1"
         inkscape:connector-curvature="0" />
      <path
         id="path1263-6"
         d="m 471.73162,295.14111 c 3.18475,0 6.20153,-0.60525 9.05037,-1.81713 2.84882,-1.2105 5.33374,-2.88149 7.45905,-5.01297 2.12531,-2.12803 3.78767,-4.62348 4.99568,-7.48084 1.20585,-2.8553 1.81093,-5.88293 1.81093,-9.08015 0,-3.19583 -0.60509,-6.22139 -1.81093,-9.07876 -1.20801,-2.85529 -2.87037,-5.34868 -4.99568,-7.48084 -2.12531,-2.13148 -4.61023,-3.8004 -7.45905,-5.01228 -2.84884,-1.21257 -5.86562,-1.81575 -9.05037,-1.81575 -3.18688,0 -6.20582,0.60318 -9.0525,1.81575 -2.84882,1.21188 -5.3359,2.8808 -7.45905,5.01228 -2.12533,2.13216 -3.81352,4.62555 -5.06889,7.48084 -1.25538,2.85737 -1.882,5.88293 -1.882,9.07876 0,3.19722 0.62662,6.22485 1.882,9.08015 1.25537,2.85736 2.94356,5.35281 5.06889,7.48084 2.12315,2.13148 4.61023,3.80247 7.45905,5.01297 2.84668,1.21188 5.86562,1.81713 9.0525,1.81713 m -0.0732,-61.74179 c 5.32514,0 10.31435,0.99473 14.96335,2.97593 4.64898,1.9874 8.71658,4.72206 12.20279,8.20811 3.48836,3.48881 6.22306,7.55392 8.20841,12.20497 1.98535,4.64692 2.97803,9.63852 2.97803,14.96169 0,5.32663 -0.99268,10.31615 -2.97803,14.96514 -1.98535,4.64692 -4.72005,8.71479 -8.20841,12.20291 -3.48621,3.48605 -7.55381,6.22278 -12.20279,8.20604 -4.649,1.9874 -9.63821,2.978 -14.96335,2.978 -5.32729,0 -10.31434,-0.9906 -14.96118,-2.978 -4.649,-1.98326 -8.71875,-4.71999 -12.20495,-8.20604 -3.48622,-3.48812 -6.22306,-7.55599 -8.20841,-12.20291 -1.98535,-4.64899 -2.97803,-9.63851 -2.97803,-14.96514 0,-5.32317 0.99268,-10.31477 2.97803,-14.96169 1.98535,-4.65105 4.72219,-8.71616 8.20841,-12.20497 3.4862,-3.48605 7.55595,-6.22071 12.20495,-8.20811 4.64684,-1.9812 9.63389,-2.97593 14.96118,-2.97593"
         style="fill:#000000;stroke-width:0.551247;fill-opacity:1"
         inkscape:connector-curvature="0" />
      <path
         id="path1265-3"
         d="m 568.2386,238.48329 c 4.60375,3.1007 8.24716,7.09481 10.9345,11.983 2.68517,4.8944 4.02884,10.24308 4.02884,16.055 v 42.3324 c 0,0.7707 -0.62228,1.39525 -1.39317,1.39525 h -12.17698 c -0.76873,0 -1.39319,-0.62455 -1.39319,-1.39525 v -42.3324 c 0,-2.51889 -0.48882,-4.9137 -1.45994,-7.19201 -0.97115,-2.27348 -2.30836,-4.25881 -4.01161,-5.95393 -1.70113,-1.69442 -3.66924,-3.02763 -5.90654,-3.99617 -2.23513,-0.96716 -4.61453,-1.45177 -7.14466,-1.45177 -2.52799,0 -4.93755,0.48461 -7.22006,1.45177 -2.28466,0.96854 -4.25493,2.30175 -5.90651,3.99617 -1.65159,1.69512 -2.96726,3.68045 -3.93841,5.95393 -0.97114,2.27831 -1.45779,4.67312 -1.45779,7.19201 v 42.3324 c 0,0.7707 -0.62228,1.39525 -1.39319,1.39525 h -12.17695 c -0.76874,0 -1.3932,-0.62455 -1.3932,-1.39525 v -74.49824 c 0,-0.7707 0.62449,-1.39318 1.3932,-1.39318 h 12.20494 c 0.76012,0 1.37813,0.60732 1.39535,1.36492 l 0.0345,1.73165 c 0.0214,1.0485 1.15203,1.70063 2.06503,1.18844 2.06071,-1.16294 4.27216,-2.10597 6.63435,-2.83186 3.15243,-0.96647 6.4233,-1.45315 9.81476,-1.45315 3.39146,0 6.66666,0.48668 9.81694,1.45315 3.15029,0.96923 6.03143,2.32381 8.64985,4.06787"
         style="fill:#000000;stroke-width:0.551247;fill-opacity:1"
         inkscape:connector-curvature="0" />
      <path
         id="path1267-8"
         d="m 634.00497,274.60256 c 0.0283,0.0345 0.0558,0.0738 0.0796,0.10823 1.33721,1.92467 2.39015,4.01134 3.15893,6.26552 0.77301,2.27624 1.11109,4.67311 1.01632,7.18994 -0.0969,3.19583 -0.82256,6.15246 -2.17913,8.86093 -1.35662,2.71328 -3.14818,5.08603 -5.37466,7.11893 -2.22869,2.03497 -4.84495,3.60876 -7.84667,4.72206 -3.0017,1.11537 -6.14981,1.62136 -9.44225,1.52485 -4.64684,-0.19578 -8.83714,-1.40215 -12.56456,-3.63082 -3.33765,-1.99154 -5.95606,-4.56489 -7.85742,-7.7235 -0.37901,-0.62662 -0.2024,-1.44488 0.39837,-1.86469 l 10.05596,-7.01554 c 0.68259,-0.47634 1.60203,-0.21301 1.98961,0.52115 0.5814,1.10848 1.45138,2.08667 2.60339,2.93457 1.64728,1.21257 3.58095,1.81576 5.80964,1.81576 2.51937,0.0965 4.7222,-0.60319 6.61066,-2.1039 1.8884,-1.50348 2.83374,-3.36611 2.83374,-5.59478 0,-0.67557 -0.0496,-1.16225 -0.14428,-1.45316 v -0.2909 c -0.0991,-0.19371 -0.14649,-0.36398 -0.14649,-0.50806 0,-0.14407 -0.0496,-0.31434 -0.14642,-0.50805 -0.67832,-1.64755 -1.93581,-3.00212 -3.77471,-4.06786 -0.2907,-0.19371 -0.72786,-0.38742 -1.30706,-0.58113 l 0.14428,-0.14683 c -1.35871,-0.77276 -2.85738,-1.52415 -4.50468,-2.25004 -1.6473,-0.72796 -3.31824,-1.50072 -5.01072,-2.32519 -1.69685,-0.82032 -3.36779,-1.69511 -5.01293,-2.61402 -1.6473,-0.91959 -3.19553,-2.00946 -4.649,-3.2689 v -0.14684 l -0.43492,-0.43498 c -2.03492,-1.9357 -3.63265,-4.18781 -4.7933,-6.75495 -1.16276,-2.56439 -1.6968,-5.30319 -1.59989,-8.20812 0.0969,-2.90492 0.77517,-5.61614 2.03487,-8.13504 1.25757,-2.51751 2.92851,-4.69655 5.01293,-6.53781 2.08222,-1.8385 4.52624,-3.29027 7.33412,-4.35808 2.8101,-1.06367 5.8118,-1.54828 9.00733,-1.45315 4.16451,0.19577 7.91772,1.21188 11.25965,3.05107 2.90694,1.60205 5.27989,3.67769 7.12525,6.23174 0.45655,0.63075 0.29931,1.51795 -0.34234,1.9612 l -9.93326,6.85836 c -0.59429,0.40948 -1.38886,0.28884 -1.86045,-0.2585 -0.54479,-0.6349 -1.2489,-1.20775 -2.10807,-1.71787 -1.30707,-0.77345 -2.7864,-1.16293 -4.43153,-1.16293 -2.22864,-0.0951 -4.13865,0.43704 -5.7364,1.59791 -1.59993,1.16225 -2.39665,2.56853 -2.39665,4.21401 0,0.48668 0.0476,0.8224 0.14435,1.01817 0.19164,1.06574 0.67612,1.98534 1.45347,2.75879 0.75797,0.76173 1.70754,1.38422 2.84233,1.86263 0.0407,0.0193 0.0797,0.0365 0.11844,0.06 1.82601,1.0554 3.91254,2.13423 6.26393,3.23444 2.36006,1.10848 4.74377,2.33621 7.1533,3.6839 0.0262,0.0152 0.0517,0.0262 0.0775,0.0393 1.70976,0.76656 3.42165,1.85573 5.13134,3.27511 0.0386,0.0324 0.0753,0.0641 0.11202,0.10133 l 0.67177,0.6735 c 0.95608,0.85962 2.00903,2.00463 3.15462,3.43228"
         style="fill:#000000;stroke-width:0.551247;fill-opacity:1"
         inkscape:connector-curvature="0" />
      <path
         id="path1269-3"
         d="m 683.43842,296.01107 c 3.29244,0 6.36734,-0.63282 9.22479,-1.89916 2.85529,-1.26634 5.35095,-2.9718 7.48273,-5.11637 2.12963,-2.14251 3.82428,-4.65313 5.08399,-7.52772 1.25749,-2.87253 1.88846,-5.91947 1.88846,-9.1346 0,-3.31372 -0.63097,-6.40615 -1.88846,-9.28075 -1.25971,-2.87459 -2.95436,-5.38521 -5.08399,-7.52772 -2.13178,-2.14526 -4.62744,-3.85003 -7.48273,-5.11843 -2.85745,-1.26634 -5.93235,-1.89917 -9.22479,-1.89917 -3.29452,0 -6.36944,0.63283 -9.22474,1.89917 -2.85744,1.2684 -5.35101,2.97317 -7.48058,5.11843 -2.13178,2.14251 -3.82648,4.65313 -5.08614,7.52772 -1.25756,2.8746 -1.88845,5.96703 -1.88845,9.28075 0,3.21513 0.63089,6.26207 1.88845,9.1346 1.25966,2.87459 2.95436,5.38521 5.08614,7.52772 2.12957,2.14457 4.62314,3.85003 7.48058,5.11637 2.8553,1.26634 5.93022,1.89916 9.22474,1.89916 m -0.0732,-62.46768 c 5.31871,0 10.31868,1.0168 15.00858,3.05107 4.6899,2.0329 8.79626,4.79376 12.32555,8.27981 3.52711,3.48812 6.30703,7.60355 8.33762,12.34905 2.02841,4.74618 3.04475,9.78259 3.04475,15.1099 v 36.23164 c 0,0.76862 -0.62448,1.39318 -1.39317,1.39318 h -12.17698 c -0.76872,0 -1.39317,-0.62456 -1.39317,-1.39318 v -2.9587 c 0,-1.10228 -1.22527,-1.77646 -2.14689,-1.16914 -2.70667,1.78749 -5.62228,3.24684 -8.7489,4.37945 -3.97068,1.43868 -8.23203,2.15767 -12.78418,2.15767 -5.32725,0 -10.33803,-1.0161 -15.03438,-3.05107 -4.70065,-2.0329 -8.78979,-4.79306 -12.27599,-8.27912 -3.4862,-3.48674 -6.2468,-7.57804 -8.27951,-12.27597 -2.03702,-4.69656 -3.0512,-9.70952 -3.0512,-15.03476 0,-5.32731 1.01202,-10.36372 3.04259,-15.1099 2.03059,-4.7455 4.78467,-8.86093 8.26442,-12.34905 3.47974,-3.48605 7.56459,-6.24691 12.25234,-8.27981 4.68989,-2.03427 9.69417,-3.05107 15.00852,-3.05107"
         style="fill:#000000;stroke-width:0.551247;fill-opacity:1"
         inkscape:connector-curvature="0" />
      <path
         id="path1271-7"
         d="m 747.93867,234.7925 v 73.91643 c 0,0.7707 -0.62449,1.39318 -1.39322,1.39318 h -12.17694 c -0.76878,0 -1.39322,-0.62248 -1.39322,-1.39318 V 234.7925 c 0,-0.76863 0.62441,-1.39318 1.39322,-1.39318 h 12.17694 c 0.76871,0 1.39322,0.62455 1.39322,1.39318 m -14.96338,-10.63325 v -12.17464 c 0,-0.7707 0.62441,-1.39318 1.39322,-1.39318 h 12.17694 c 0.76871,0 1.39322,0.62248 1.39322,1.39318 v 12.17464 c 0,0.76862 -0.62449,1.39318 -1.39322,1.39318 h -12.17694 c -0.76878,0 -1.39322,-0.62456 -1.39322,-1.39318"
         style="fill:#000000;stroke-width:0.551247;fill-opacity:1"
         inkscape:connector-curvature="0" />
      <text
         xml:space="preserve"
         style="font-style:normal;font-variant:normal;font-weight:normal;font-stretch:normal;font-size:42px;line-height:1.25;font-family:Arial;-inkscape-font-specification:Arial;letter-spacing:0.132292px;fill:#000000;stroke-width:0.264583;fill-opacity:1"
         x="348.8414"
         y="366.05371"
         id="text3586"><tspan
           sodipodi:role="line"
           id="tspan3584"
           style="font-style:normal;font-variant:normal;font-weight:normal;font-stretch:normal;font-size:42px;font-family:Arial;-inkscape-font-specification:Arial;fill:#000000;stroke-width:0.264583;fill-opacity:1"
           x="348.8414"
           y="366.05371">CONFERENCE 2024</tspan></text>
    </g>
  </g>
</svg>
